<svg width="621" height="376" viewBox="0 0 621 376" fill="none" xmlns="http://www.w3.org/2000/svg">
<path d="M149.452 285.34C148.34 285.34 147.784 284.228 147.784 282.004C147.784 278.112 155.568 266.436 171.136 246.976C173.36 244.196 182.395 233.215 198.241 214.033C214.087 194.851 225.068 181.368 231.184 173.584C253.98 144.116 269.131 121.737 276.637 106.447C284.421 91.157 288.313 78.508 288.313 68.5C288.313 45.704 269.409 34.306 231.601 34.306C191.569 34.306 139.583 45.148 75.643 66.832C30.885 82.122 8.506 96.3 8.506 109.366C8.506 114.092 11.703 118.679 18.097 123.127C20.043 124.239 19.904 124.934 17.68 125.212C15.734 125.212 14.066 124.795 12.676 123.961C4.336 118.401 0.166 111.173 0.166 102.277C0.166 93.381 2.668 84.624 7.672 76.006C12.954 67.11 21.433 59.465 33.109 53.071C59.797 37.781 91.767 25.41 129.019 15.958C169.051 5.67198 206.442 0.52898 241.192 0.52898C277.888 0.52898 301.518 7.33998 312.082 20.962C319.032 29.58 322.507 38.198 322.507 46.816C322.507 55.156 320.839 63.496 317.503 71.836C311.387 88.794 301.518 105.474 287.896 121.876C285.116 125.49 275.664 136.749 259.54 155.653C243.694 174.279 231.323 189.152 222.427 200.272C322.785 94.632 393.397 41.812 434.263 41.812C445.939 41.812 454.279 46.816 459.283 56.824C462.063 62.384 463.453 67.249 463.453 71.419C463.453 75.589 463.175 80.315 462.619 85.597C461.785 99.497 450.109 125.49 427.591 163.576C461.507 128.27 491.809 100.748 518.497 81.01C550.745 57.102 578.267 45.148 601.063 45.148C614.129 45.148 620.662 50.708 620.662 61.828C620.662 72.67 613.712 88.377 599.812 108.949C517.802 229.323 476.797 309.387 476.797 349.141C476.797 361.651 480.411 368.462 487.639 369.574C492.087 370.408 496.813 369.018 501.817 365.404C503.763 364.014 505.431 364.153 506.821 365.821C508.211 367.767 507.655 369.852 505.153 372.076C502.651 374.578 499.732 375.829 496.396 375.829C493.06 375.829 489.168 375.551 484.72 374.995C480.272 374.439 474.434 372.632 467.206 369.574C459.978 366.794 453.862 361.929 448.858 354.979C444.132 348.307 441.769 340.801 441.769 332.461C441.769 320.507 443.298 309.804 446.356 300.352C453.862 278.39 489.029 223.624 551.857 136.054C570.761 109.644 580.213 90.74 580.213 79.342C580.213 70.724 575.765 66.415 566.869 66.415C554.915 66.415 540.876 72.531 524.752 84.763C490.28 110.895 451.777 147.313 409.243 194.017C397.567 212.921 383.111 235.022 365.875 260.32C363.373 263.934 360.454 265.741 357.118 265.741C345.998 265.741 340.438 263.239 340.438 258.235C340.438 257.123 340.716 256.011 341.272 254.899C387.42 174.835 413.274 123.544 418.834 101.026C420.502 93.242 421.336 87.265 421.336 83.095C421.336 78.647 421.197 75.172 420.919 72.67C418.973 64.608 413.969 60.577 405.907 60.577C397.845 60.577 386.864 65.164 372.964 74.338C349.056 89.628 319.449 114.231 284.143 148.147C248.837 182.063 214.921 217.23 182.395 253.648C181.561 254.482 180.588 254.899 179.476 254.899C163.352 275.193 153.344 285.34 149.452 285.34Z" fill="black"/>
</svg>
